<?xml version="1.0" encoding="utf-8"?>
<!-- Generator: Adobe Illustrator 27.3.1, SVG Export Plug-In . SVG Version: 6.00 Build 0)  -->
<svg version="1.1" id="Calque_1" xmlns="http://www.w3.org/2000/svg" xmlns:xlink="http://www.w3.org/1999/xlink" x="0px" y="0px"
	 viewBox="0 0 327.7 294.9" style="enable-background:new 0 0 327.7 294.9;" xml:space="preserve">
<style type="text/css">
	.st0{display:none;}
	.st1{fill:none;}
	.st2{fill:#B57F43;}
	.st3{fill:#F2CC8C;}
	.st4{fill:#B68045;}
	.st5{fill:#3049B5;}
	.st6{fill:#9A6D3A;}
	.st7{fill:#352414;}
	.st8{fill:#F5D582;}
	.st9{fill:#BE8892;}
</style>
<g id="Layer_2" class="st0">
</g>
<g id="Layer_1">
	<g>
		<path class="st1" d="M251.5,108.3c2.2-10.1-21.5-9.2-29.5-11c-3.8-5.8-18.8-5-18.8-5c-9,0.8-14.8,4-17.2,7.6
			c-8.4,2.1-33.5,9.5-45.6,26.4c-11.4,15.9-12.6,31.7-7,40.6c0,0,4.2,4.4,8.8,7.1c18.6,10,27.9-13.7,56.4-24.2
			c11.5-4.2,28.1-1.7,40-2.4C250,139.6,250.4,113.6,251.5,108.3z"/>
		<path class="st2" d="M87.7,228.4c-2.2-11.1-2.6-22.5-2-32.3c0.9-13.6,3.2-27.3,6.6-40.6c1.7-6.6,3.4-13.1,5.7-19.6
			c1.1-3.2,2.9-6.4,4.1-9.6c1.2-2.9,1.4-6.1,1.9-9.2c-1.4-0.1-2.7-0.5-3.9-1.2c-0.4-0.2-0.8-0.5-1.2-0.7c0,0-16.8,36.5-16.5,107.8
			C84.2,224.9,85.9,226.7,87.7,228.4z"/>
		<path class="st2" d="M259.7,236.7c-6.3,25.1-27.5-49.5-15.3-80.2c-1.1,1.7-3,3.2-4,4.7c-16.6,24.7-16,63.2-17.8,96.6
			c11-2.9,24.3-7.2,34.2-12.1C257.6,243.8,261.3,230.5,259.7,236.7z"/>
		<path class="st3" d="M111.5,109.6c-3.6-4.6-1.1-11.7,0.6-15.3c-1.2-1.2-3.4-3.3-6-4.5c-2.9-1.4-6.3-1.6-9,1.9
			C91,99.6,102,119.7,111.5,109.6z"/>
		<path class="st4" d="M115.2,181.8c-7.1,25-2.3,48.2,2.7,67.4c28.3,13.8,61.7,17.1,94.7,11.1c3.2-0.6,6.4-1.3,9.5-2
			c6.2-41.2,2.6-91.8,24.5-106.1c-0.8,1.3-1.5,2.8-2.2,4.4c3.8-5.6,7.8-11.4,6.5-13.2c-2,2.1-5.2,3.2-9.1,3.7
			c-2.1,0.7-4.4,1.4-6.9,2c1.4-0.4,2.7-0.9,3.8-1.7c-11.9,0.7-28.5-1.9-40,2.4c-28.5,10.5-37.8,34.3-56.4,24.2
			c-4.6-2.7-8.8-7.1-8.8-7.1c-5.7-8.9-4.4-24.6,7-40.6c12.1-16.9,37.2-24.3,45.6-26.4c2.3-3.6,8.2-6.8,17.2-7.6c0,0,15-0.8,18.8,5
			c8,1.8,31.7,1,29.5,11c-1.1,5.3-1.5,31.3-12.9,39c1.1-0.1,2.1-0.2,3.1-0.3c39.9-13.2,21.1-38.3,19.2-45.7
			c15.3-5.3,14.8-33.8,3.1-35.6c-6.1-0.9-9.3,1.3-11,3.8c-6.2-8.9-17.8-21.4-35.7-25.6c-23.9-5.6-96-6-109.6,38.3
			c-3.4-1.3-7.9-1.1-12.8,4.3c-7.5,8.1-3.6,23.4,4,28.7c0.4,0.3,0.8,0.5,1.2,0.7c1.2,0.7,2.5,1.1,3.9,1.2
			C101.8,121.7,113.3,176,115.2,181.8z M97.1,91.6c2.7-3.5,6-3.2,9-1.9c2.6,1.2,4.9,3.3,6,4.5c-1.7,3.6-4.2,10.7-0.6,15.3
			C102,119.7,91,99.6,97.1,91.6z"/>
		<path class="st4" d="M234.8,149c2.5-0.6,4.8-1.3,6.9-2c-1,0.1-2,0.2-3.1,0.3C237.5,148.1,236.2,148.7,234.8,149z"/>
		<path class="st4" d="M244.4,156.5c0.6-1.6,1.4-3.1,2.2-4.4c-26.9,17.3-18.3,64.9-24.5,106.1c1.1-0.3,2.2-0.5,3.3-0.8
			c1.7-33.4-0.7-71.4,15.8-96.1C242.2,159.8,243.3,158.2,244.4,156.5z"/>
		<path class="st4" d="M119.6,182.2c-1.9-5.8-16.3-60.5-15.5-65.1c-1.4-0.1-2.7-0.5-3.9-1.2c1.2,0.7,2.5,1.1,3.9,1.2
			c-0.5,3.1-2.3,6-3.5,8.9c-1.3,3.2-2.5,6.4-3.6,9.6c-2.2,6.4-4.2,13-5.9,19.6c-3.3,13.2-5.4,26.8-6.3,40.4
			c-0.6,9.8,0.8,21.4,2.9,32.6c9.1,8.6,19.2,15.5,30.2,20.8C112.9,230,112.5,207.3,119.6,182.2z"/>
	</g>
	<g>
		<path class="st5" d="M151,263.5C74.7,252.7,20,207.8,26.6,161.1c0.9-6.2,6.1-10.6,11.7-9.8s9.4,6.4,8.5,12.6
			c-4.1,29.3,38,67.3,107.3,77.1s120.3-15.1,124.4-44.5c0.9-6.2,6.1-10.6,11.7-9.8c5.6,0.8,9.4,6.4,8.5,12.6
			C292.2,246,227.3,274.2,151,263.5z"/>
	</g>
	<path class="st2" d="M262.5,125.3c-9.5,26.2-33.8,27.7-51.1,14.4c-3.3-2.5-1.7-3.4-5.1-2.9c-8.9,1.5-20,15.9-24.6,22.5
		c-7.1,10.3-13.6,21.3-25.1,27.4c-8.1,4.3-20.2,6.8-29.3,7.6c-0.1-8.7-2.3-18.3-4.3-26.8c-1.8-7.5-3-15.1-5.7-22.3
		c-3.2-8.6-6-16.1-5-25.5c2.1-20,21-37.1,40.4-40.2c9.8-1.6,19.8,0.7,27.2,7.6c6.2,5.7,16.2-13.6,9.1-5.2c3.3,3,7.7,5.8,5.6-0.7
		c-0.4-1.4,11.1-7.2,10.4-8.5c-1.3-2.3,6.5,15.7,7.3,13.2c5.1-15.9,24.2-9.9,40-4.2c-0.6,7.2-1.6,15.9,2.4,22.4
		C259.1,110.9,266.1,115.3,262.5,125.3z"/>
	<path class="st6" d="M142.5,141.6c0,0,9.4,48.8,64.8,17c0,0,24.5,14.2,41.1-7.4l-2.5-4.2l-25.4-0.2l-11.6-7.5l-5.4,2.1l-13.7,7.6
		l-18.7,4.4l-23.5-4.7L142.5,141.6z"/>
	<g>
		<path class="st2" d="M156.3,192.9"/>
		<path class="st2" d="M261.5,140.8c-3.9,3.9-7.9,6.4-12,8.5c-8.9,4.6-18.7,6.2-28.3,3.1c-4.8-1.5-9.2-3.4-14.4-9.6
			c-7.2,9.2-24.5,14.6-36.4,14.4c-8.1-0.1-16.7-3.1-22.8-8.7c-5.2-4.8-7.9-12.7-8.9-19.6c-0.6,0.2-1.3,0.3-1.9,0.4
			c-0.3,0-0.6-0.2-0.5-0.6c0.6-1.5,1.4-2,2.7-3c0.6-0.5,6.8,11.5,11.7,15.8c5.6,5,13.1,7.3,20.4,7.1c13.1-0.3,26.4-6.5,35.1-13.9
			c0.6-0.5,5,4.5,10.9,7.5c5,2.6,10.4,3.6,16,3.5c10.3-0.2,20.2-6.1,26.8-13.9c2.7-3.2,5.2-7.3,5.5-11.7c0.3-4.8-2.3-7.9-5.6-10.9
			c-4.3-3.9-5.5-8.2-6.7-13.7"/>
		<path class="st2" d="M253,95.6c1.2,5.5,2.4,9.8,6.7,13.7c3.3,3,5.9,6.2,5.6,10.9c-0.3,4.4-2.8,8.4-5.5,11.7
			c-6.6,7.9-16.5,13.7-26.8,13.9c-5.5,0.1-11-0.9-16-3.5c-5.9-3-10.3-8-10.9-7.5c-8.7,7.4-22,13.6-35.1,13.9
			c-7.3,0.2-14.8-2.1-20.4-7.1c-4.8-4.3-11-16.3-11.7-15.8c-1.3,1-2.1,1.5-2.7,3c-0.1,0.3,0.2,0.6,0.5,0.6c0.7-0.1,1.3-0.2,1.9-0.4
			c0.9,6.9,3.7,14.8,8.9,19.6c6.1,5.6,14.7,8.6,22.8,8.7c11.9,0.2,29.1-5.2,36.4-14.4c5.2,6.1,9.6,8,14.4,9.6
			c9.6,3,19.4,1.5,28.3-3.1c4.1-2.1,8.1-4.6,12-8.5l4.1-5c6.3-7.7,9.6-17.3,3.6-26.3c-1.3-2-3-3.5-4.7-5.1c-2.5-2.2-3.7-4.4-4.4-7.7
			c-0.6-2.5-1.3-16.1-4.6-24.7"/>
	</g>
	<path class="st3" d="M193.6,116.2c0,0-41.9-11.4-50.6,6.8s3.9,26.5,9.6,29.2s29.2,15.3,54.2-9.4c0,0,24.8,32.2,58.9-6.1
		c0,0,17.4-22.6-4.2-31.9s-45.8,11-45.8,11L193.6,116.2z"/>
	<g>
		<g>
			<path class="st7" d="M153.6,79.4c-6.9-5.6-16.5,10-11.2,15.7c0.3,0.4,1,0.4,1.2-0.1c2.3-6.2,3.7-11.7,9.9-15
				C153.7,79.8,153.8,79.6,153.6,79.4L153.6,79.4z"/>
		</g>
		<g>
			<path class="st7" d="M231.6,76.2c5.4,4,8.9,11.3,10.9,16.4c0.4,1,2.7-0.8,2.6-1.8c-0.6-8.3-11.3-27.3-21.4-17.6
				C223.2,73.7,228,73.6,231.6,76.2z"/>
		</g>
		<path class="st7" d="M215.5,122.1c1.3-0.8,4.4-1.9,4.6-3.9c0.5-5.3-10.7-5.5-13.7-5.7c-4.1-0.3-15.6,2-15.6,5.9
			c-0.1,2.4,2.2,3.5,3.9,4.5c3.2,1.9,10.4,5.2,10.5,5.2h0C205.5,128,214,123,215.5,122.1z"/>
		<path class="st7" d="M161.8,87.8c-2.8,0.1-9.3,11-4.7,16.5c1.8,2.2,5.4,0,6.8-3.3c2,2.8,7.9,5.7,8.4,0.3
			C172.8,94.6,162,87.7,161.8,87.8z"/>
		<path class="st7" d="M223.6,99.2c1-0.3,1.7-0.9,2.2-1.8c0.1-0.2,0.3-0.8,0.5-1.4c1.6,3,7.9,5.5,8.2,1.4c0.4-6.9-8.5-15-9.9-15.2
			c-1.1-0.1-4.6,7.9-4.8,12C219.5,97.6,221.2,99.8,223.6,99.2z"/>
		<path class="st8" d="M223.5,89.7c-0.1-0.5-0.5-1-1.3-1.4c-1.9-0.8-4.2,2-2.2,3.4C221.7,92.8,223.8,91.2,223.5,89.7z"/>
		<path class="st8" d="M157.8,97.8c3.5-2.4-2-5.3-3.3-2.6C153.5,97.4,156,99,157.8,97.8z"/>
		<path class="st9" d="M215.7,115.9c-1.3-1.4-10.7-1.2-9.6,1.7C207.3,120.7,217.9,119.2,215.7,115.9z"/>
	</g>
	<path class="st7" d="M265.7,123.2"/>
	<path class="st6" d="M99,115.3c0,0,4.2,3.5,10,0.4c0,0-8.8,8.4-12.9,6.9L99,115.3z"/>
	<path class="st6" d="M261.7,101.1c0,0-1.2-2.1-1.8-8.7c0,0,2.6,7.1,4.9,6.9C264.8,99.3,263.2,100.5,261.7,101.1z"/>
	<path class="st3" d="M259.9,92.6c-1.7-7.1-3-14.3-6.2-20.9c1.6-1.3,4.2-2.6,7.5-2.2C266.8,70.2,276,84.4,259.9,92.6z"/>
</g>
<g id="Calque_3" class="st0">
</g>
</svg>
