<?xml version="1.0" encoding="utf-8"?>
<!-- Generator: Adobe Illustrator 27.3.1, SVG Export Plug-In . SVG Version: 6.00 Build 0)  -->
<svg version="1.1" id="Calque_1" xmlns="http://www.w3.org/2000/svg" xmlns:xlink="http://www.w3.org/1999/xlink" x="0px" y="0px"
	 viewBox="0 0 911.9 355.6" style="enable-background:new 0 0 911.9 355.6;" xml:space="preserve">
<style type="text/css">
	.st0{fill:#3049B5;}
	.st1{fill:none;}
	.st2{fill:#B57F43;}
	.st3{fill:#F2CC8C;}
	.st4{fill:#B68045;}
	.st5{fill:#9A6D3A;}
	.st6{fill:#352414;}
	.st7{fill:#F5D582;}
	.st8{fill:#BE8892;}
</style>
<g id="Layer_2">
</g>
<g id="Layer_1">
	<g>
		<path class="st0" d="M391.5,188.8c0.6,4.6,0.5,8.7-0.3,12.4s-2.4,6.9-4.7,9.6s-4.9,5.1-7.9,7.1c-3,2.1-6.5,3.7-10.4,5
			c-3.9,1.2-7.9,2.2-11.8,2.9s-8,1.2-12.1,1.4c-6,9.5-12.3,17.2-19,23c-6.6,5.8-13.6,9.2-20.8,10.3c-7.3,1-13.8-2-19.6-9
			c-7.5-8.3-11.2-18.9-11.4-31.9c-0.1-12.9,2.4-25.3,7.6-37s11.7-21.5,19.6-29.4c0.2,0,0.4,0,0.6,0c3.9-11.6,10.5-19.9,19.7-25
			c9.2-5.1,19-5.3,29.4-0.8c7.2,3.3,12,9.6,14.1,18.8c2.2,9.2,2.1,19.4-0.2,30.6c-2.3,11.2-6.1,22.6-11.5,34.2c7-0.4,14-2.5,21-6.2
			C380.9,201.2,386.7,195.8,391.5,188.8z M308.5,230.4c4.1,2.1,9.1-0.1,14.9-6.5c-7.7-2.9-13.5-7.8-17.4-14.6
			C303.3,221.1,304.1,228.2,308.5,230.4z M334.6,207.1c3.9-7,7-14.4,9.2-22.2s3.2-15.4,3.1-23s-1.8-13.5-5.1-17.9
			c-4.6-4.1-8.8-1.7-12.7,7.5c-5.2,11.4-6.7,23.5-4.7,36.4c1.2,7.1,3.7,12.6,7.5,16.8C332.6,205.7,333.6,206.5,334.6,207.1z"/>
		<path class="st0" d="M457.7,126.6c-3.9-1.4-10.7-2.5-20.2-3.1c-25.5,55.1-35.5,90.2-30.1,105.4c2.7,7.3,9.3,5.6,19.9-5.1
			c10.6-10.7,18.4-20.6,23.6-29.7c2.7,5.6-0.4,16.3-9.3,32c-10,18-20.6,30.2-32,36.4c-12,6.4-21.5,3.4-28.6-9
			c-2.3-4.1-3.8-9.3-4.5-15.5s-0.7-12.9,0.2-20.2c0.8-7.2,2.1-14.8,3.9-22.7s4-16,6.7-24.4s5.5-16.4,8.4-23.9
			c2.9-7.6,5.9-15.1,9-22.5c-4.1,0.4-7.8,1.1-10.9,2.2c-6.2,1.7-9.2,0.2-9-4.3c0-4.6,2-8.2,5.9-10.9c0.8-0.6,1.7-1,2.5-1.2
			c4.8-1.4,11.2-2.4,19.3-2.8c5-10.2,9.1-17.9,12.4-23.3c2.3-0.8,5.3-0.9,9-0.2c3.7,0.7,7.2,2.5,10.6,5.4c3.3,2.9,4.8,6.6,4.4,11.2
			c-1.5,2.9-2.9,5.9-4.4,9C458.2,112.5,462.7,118.3,457.7,126.6z"/>
		<path class="st0" d="M518.3,126.6c-3.9-1.4-10.7-2.5-20.2-3.1c-25.5,55.1-35.5,90.2-30.1,105.4c2.7,7.3,9.3,5.6,19.9-5.1
			c10.6-10.7,18.4-20.6,23.6-29.7c2.7,5.6-0.4,16.3-9.3,32c-10,18-20.6,30.2-32,36.4c-12,6.4-21.5,3.4-28.6-9
			c-2.3-4.1-3.8-9.3-4.5-15.5s-0.7-12.9,0.2-20.2c0.8-7.2,2.1-14.8,3.9-22.7s4-16,6.7-24.4s5.5-16.4,8.4-23.9
			c2.9-7.6,5.9-15.1,9-22.5c-4.1,0.4-7.8,1.1-10.9,2.2c-6.2,1.7-9.2,0.2-9-4.3c0-4.6,2-8.2,5.9-10.9c0.8-0.6,1.7-1,2.5-1.2
			c4.8-1.4,11.2-2.4,19.3-2.8c5-10.2,9.1-17.9,12.4-23.3c2.3-0.8,5.3-0.9,9-0.2c3.7,0.7,7.2,2.5,10.6,5.4c3.3,2.9,4.8,6.6,4.4,11.2
			c-1.5,2.9-2.9,5.9-4.4,9C518.8,112.5,523.3,118.3,518.3,126.6z"/>
		<path class="st0" d="M600.3,189.7c1.5,2.7,1.9,6.2,1.4,10.4s-2,8.6-4.5,13.1s-5.4,9.1-8.9,14c-3.4,4.9-7.5,9.3-12.3,13.4
			c-4.8,4-9.6,7.7-14.6,11s-10.2,5.8-15.7,7.3s-10.7,2.2-15.5,1.9c-4.9-0.3-9.6-2.1-14.1-5.3c-4.6-3.2-8.5-7.8-11.8-13.8
			c-10.1-18.9-9.1-40.3,3.1-64.3c8.9-17.6,20.6-30.9,35.1-39.8c15.1-9.3,26.7-9.4,34.8-0.3l2.2,2.5c6.2,9.3,5.9,23-0.9,41
			c-6.2,16.6-14.4,28.2-24.5,34.8c-11,7.1-20.4,4.9-28.3-6.5c-3.1,12.9-2.8,22,0.9,27.4c2.5,2.9,6.2,4.1,11,3.6
			c4.9-0.5,10.6-2.6,17.1-6.2c6.5-3.6,12.8-7.9,19-12.7c6.1-4.9,11.7-10.1,16.6-15.9C595.4,199.4,598.7,194.3,600.3,189.7z
			 M567.4,149.3c-17.8,11.6-30.6,27.7-38.2,48.2c5.6,3.9,12,2.9,19.1-3.1s12.7-13.8,16.6-23.3C568.8,161.6,569.7,154.3,567.4,149.3z
			"/>
		<path class="st0" d="M697.6,189.7c4.5,5.4,14.2,0.3,28.9-15.2c0,4.6-1.3,9.2-3.9,14s-5.9,8.8-10,12.1c-4,3.3-8.4,5.9-13,7.6
			s-9.4,2-14.3,0.6s-9-4.4-12.3-9.2c-2.7-3.5-4.5-7.2-5.4-11s-1.1-7.2-0.6-10.3c0.5-3,1.1-5.7,1.9-8.1c0.7-2.4,1.6-4.2,2.6-5.4
			l1.2-1.9c-8.5,5.4-18.1,17.3-28.8,35.7s-20.6,38.8-29.7,60.9c-1.5,1.7-3.9,2.4-7.3,2.3c-3.4-0.1-7.3-2.1-11.5-6.1
			c-4.2-3.9-7-8.8-8.2-14.6c-1.7-8.9,2-27,11-54.2s16.4-45.2,22.2-53.9c0.8-1,2.5-1.3,5.1-0.8s5.3,1.3,8.1,2.3s5.3,2.9,7.6,5.8
			c2.3,2.8,3.5,6.1,3.7,9.8c-3.7,6.8-7.9,16.3-12.6,28.3c-4.7,12-8.3,23.1-11,33.3c3.5-8.5,12.9-23.5,28.1-44.9
			c15.2-21.4,25.8-33.3,31.9-35.6c2.9-1.2,7-0.8,12.3,1.4s9.5,5.2,12.7,9s3.9,7.1,2,9.8C695,169.9,691.4,182.7,697.6,189.7z"/>
		<path class="st0" d="M780.3,190c2.7,5.4-0.4,16.1-9.3,32c-10,17.8-20.6,29.8-32,36.1c-12,6.6-21.5,3.6-28.6-9
			c-4.1-7.2-5.6-17.4-4.3-30.3c1.2-12.9,3.9-26.6,7.9-41s9-28.9,14.9-43.5s11.5-27.2,16.6-37.9s9.4-18.7,12.7-24.1
			c4.3-0.4,9.2,1.2,14.5,4.8s7.7,8.9,7.3,15.7c-4.8,9.3-9.5,19.1-14.1,29.4c-4.7,10.3-9.9,22.5-15.7,36.8s-10,27.4-12.6,39.3
			c-2.6,11.9-2.8,20.7-0.8,26.3c2.7,7.3,9.3,5.6,19.9-5.1C767.2,208.7,775.1,198.9,780.3,190z"/>
		<path class="st0" d="M871.1,135.3c1-0.4,2.7-0.4,5,0s4.6,1,7,1.7s4.6,2.4,6.7,5s3.3,5.9,3.7,9.8c-2.9,6.4-6,15.1-9.3,26.1
			s-6.4,21.8-9.3,32.5s-6.3,22.1-10.1,34.2c-3.8,12.1-8.1,23.2-12.9,33.1c-4.8,10-10.1,19-16,27.2s-13,14.4-21.5,18.6
			c-8.4,4.2-17.5,6.1-27.2,5.4c-6.2-0.4-11.6-1.9-16.2-4.4c-4.5-2.5-7.9-5.4-10.1-8.7c-2.2-3.3-4-6.8-5.6-10.6
			c-1.5-3.7-2.2-7.1-2-10.1s0.3-5.3,0.3-7c8.1,4.4,15.7,7,22.7,8.1c7,1,13.2,0.8,18.3-0.6c5.2-1.5,10.1-4.5,14.8-9.2
			s8.5-9.4,11.7-14.3s6.3-11.4,9.5-19.6c3.2-8.2,5.8-15.4,7.8-21.8c2-6.3,4.2-14.1,6.7-23.5c-3.5,6.4-7.2,12.5-10.9,18.3
			s-8.1,11.7-13.2,17.6c-5.1,5.9-10,10.5-14.6,13.8c-4.7,3.3-9.6,5-14.9,5c-5.3,0-10-2.3-14.1-6.8c-3.7-3.7-6.3-8.6-7.8-14.6
			s-1.9-12.3-1.2-18.8c0.6-6.5,1.8-13.4,3.6-20.7c1.8-7.2,4-14.2,6.7-21c2.7-6.7,5.5-13.2,8.4-19.3s5.6-11.3,8.2-15.7
			c2.6-4.4,4.8-7.7,6.7-9.9c4.6-1.2,9.8-0.3,15.8,2.9s8.5,8.1,7.5,14.8c-1.5,2.7-3,5.8-4.5,9.2s-3.6,8-6.2,13.7
			c-2.6,5.7-4.8,11.2-6.7,16.6s-3.5,10.7-4.8,15.9s-1.9,9.6-1.5,13.2c0.3,3.6,1.5,6,3.6,7c3.9,2.1,13-6.8,27-26.6
			c14.1-19.8,23.9-36.3,29.5-49.6v-0.3l0.3-0.6C864.8,144.7,868,139.3,871.1,135.3z"/>
	</g>
	<g>
		<path class="st1" d="M251.5,108.3c2.2-10.1-21.5-9.2-29.5-11c-3.8-5.8-18.8-5-18.8-5c-9,0.8-14.8,4-17.2,7.6
			c-8.4,2.1-33.5,9.5-45.6,26.4c-11.4,15.9-12.6,31.7-7,40.6c0,0,4.2,4.4,8.8,7.1c18.6,10,27.9-13.7,56.4-24.2
			c11.5-4.2,28.1-1.7,40-2.4C250,139.6,250.4,113.6,251.5,108.3z"/>
		<path class="st2" d="M87.7,228.4c-2.2-11.1-3.6-22.8-2.9-32.6c0.9-13.6,3-27.2,6.3-40.4c1.7-6.6,3.6-13.2,5.9-19.6
			c1.1-3.2,2.3-6.4,3.6-9.6c1.2-2.9,2.9-5.8,3.5-8.9c-1.4-0.1-2.7-0.5-3.9-1.2c-0.4-0.2-0.8-0.5-1.2-0.7c0,0-16.8,36.5-16.5,107.8
			C84.2,224.9,85.9,226.7,87.7,228.4z"/>
		<path class="st2" d="M259.7,236.7c-6.3,25.1-27.5-49.5-15.3-80.2c-1.1,1.7-2.2,3.3-3.2,4.8c-16.6,24.7-14.1,62.7-15.8,96.1
			c11-2.9,21.6-6.9,31.5-11.8C257.6,243.8,261.3,230.5,259.7,236.7z"/>
		<path class="st3" d="M111.8,109.7c-3.8-4.9-1.1-12.3,0.6-16.1c-1.2-1.3-3.6-3.5-6.3-4.8c-3.1-1.5-6.6-1.7-9.4,2
			C90.2,99.1,101.8,120.3,111.8,109.7z"/>
		<path class="st4" d="M238.4,146.9c-11.9,0.7-28.5-1.9-40,2.4c-28.5,10.5-37.8,34.3-56.4,24.2c-4.6-2.7-8.8-7.1-8.8-7.1
			c-5.7-8.9-4.4-24.6,7-40.6c12.1-16.9,37.2-24.3,45.6-26.4c2.3-3.6,8.2-6.8,17.2-7.6c0,0,15-0.8,18.8,5c8,1.8,31.7,1,29.5,11
			C250.1,113.2,249.8,139.3,238.4,146.9c1.1-0.1,2.1-0.2,3.1-0.3c39.9-13.2,21.1-38.3,19.2-45.7c15.3-5.3,14.8-33.8,3.1-35.6
			c-6.1-0.9-9.3,1.3-11,3.8c-6.2-8.9-17.8-21.4-35.7-25.6c-23.9-5.6-96-6-109.6,38.3c-3.4-1.3-7.9-1.1-12.8,4.3
			c-7.5,8.1-3.6,23.4,4,28.7c0.4,0.3,0.8,0.5,1.2,0.7c1.2,0.7,2.5,1.1,3.9,1.2c-2.6,9.2,6.7,59,8.6,64.8c-7.1,25-5.1,46.5,0,65.7
			c28.3,13.8,67,18.6,100,12.6c3.2-0.6,12.6-2.1,15.7-2.8c6.2-41.2,2.6-78.1,14.1-96.7l2-4.1c3.8-5.6,7.8-11.4,6.5-13.2
			c-2,2.1-5.2,3.2-9.1,3.7 M96.8,91.2c2.7-3.5,6-3.2,9-1.9c2.6,1.2,4.9,3.3,6,4.5c-1.7,3.6-4.2,10.7-0.6,15.3
			C101.8,119.3,90.7,99.2,96.8,91.2z"/>
		<path class="st4" d="M234.8,149c2.5-0.6,4.8-1.3,6.9-2c-1,0.1-2,0.2-3.1,0.3C237.5,148.1,236.2,148.7,234.8,149z"/>
		<path class="st4" d="M244.2,157.1c0.6-1.6,1.6-3.7,2.4-5c-21.9,14.4-18.3,64.9-24.5,106.1c1.1-0.3,2.2-0.5,3.3-0.8
			c1.7-33.4-0.9-71.1,15.7-95.8C242,160.1,243.1,158.8,244.2,157.1z"/>
		<path class="st4" d="M119.6,182.2c-1.9-5.8-16.3-60.5-15.5-65.1c-1.4-0.1-2.7-0.5-3.9-1.2c1.2,0.7,2.5,1.1,3.9,1.2
			c-0.5,3.1-2.3,6-3.5,8.9c-1.3,3.2-2.5,6.4-3.6,9.6c-2.2,6.4-5,12.5-6.8,19.1c-3.3,13.2-5.1,27.2-6,40.8
			c-0.6,9.8-0.9,21.3,2.8,32.2c9.1,8.6,19.9,16,30.9,21.3C112.9,230,112.5,207.3,119.6,182.2z"/>
	</g>
	<g>
		<path class="st0" d="M151,263.5C74.7,252.7,20,207.8,26.6,161.1c0.9-6.2,6.1-10.6,11.7-9.8s9.4,6.4,8.5,12.6
			c-4.1,29.3,38,67.3,107.3,77.1s120.3-15.1,124.4-44.5c0.9-6.2,6.1-10.6,11.7-9.8s9.4,6.4,8.5,12.6
			C292.2,246,227.3,274.2,151,263.5z"/>
	</g>
	<path class="st2" d="M262.5,125.3c-9.5,26.2-33.8,27.7-51.1,14.4c-3.3-2.5-1.7-3.4-5.1-2.9c-8.9,1.5-20,15.9-24.6,22.5
		c-7.1,10.3-13.6,21.3-25.1,27.4c-8.1,4.3-20.2,6.8-29.3,7.6c-0.1-8.7-2.3-18.3-4.3-26.8c-1.8-7.5-3-15.1-5.7-22.3
		c-3.2-8.6-6-16.1-5-25.5c2.1-20,21-37.1,40.4-40.2c9.8-1.6,19.8,0.7,27.2,7.6c6.2,5.7,16.2-13.6,9.1-5.2c3.3,3,7.7,5.8,5.6-0.7
		c-0.4-1.4,11.1-7.2,10.4-8.5c-1.3-2.3,6.5,15.7,7.3,13.2c5.1-15.9,24.2-9.9,40-4.2c-0.6,7.2-1.6,15.9,2.4,22.4
		C259.1,110.9,266.1,115.3,262.5,125.3z"/>
	<path class="st5" d="M142.5,141.6c0,0,9.4,48.8,64.8,17c0,0,24.5,14.2,41.1-7.4l-2.5-4.2l-25.4-0.2l-11.6-7.5l-5.4,2.1l-13.7,7.6
		l-18.7,4.4l-23.5-4.7L142.5,141.6z"/>
	<g>
		<path class="st2" d="M156.3,192.9"/>
		<path class="st2" d="M261.5,140.8c-3.9,3.9-7.9,6.4-12,8.5c-8.9,4.6-18.7,6.2-28.3,3.1c-4.8-1.5-9.2-3.4-14.4-9.6
			c-7.2,9.2-24.5,14.6-36.4,14.4c-8.1-0.1-16.7-3.1-22.8-8.7c-5.2-4.8-7.9-12.7-8.9-19.6c-0.6,0.2-1.3,0.3-1.9,0.4
			c-0.3,0-0.6-0.2-0.5-0.6c0.6-1.5,1.4-2,2.7-3c0.6-0.5,6.8,11.5,11.7,15.8c5.6,5,13.1,7.3,20.4,7.1c13.1-0.3,26.4-6.5,35.1-13.9
			c0.6-0.5,5,4.5,10.9,7.5c5,2.6,10.4,3.6,16,3.5c10.3-0.2,20.2-6.1,26.8-13.9c2.7-3.2,5.2-7.3,5.5-11.7c0.3-4.8-2.3-7.9-5.6-10.9
			c-4.3-3.9-5.5-8.2-6.7-13.7"/>
		<path class="st2" d="M253,95.6c1.2,5.5,2.4,9.8,6.7,13.7c3.3,3,5.9,6.2,5.6,10.9c-0.3,4.4-2.8,8.4-5.5,11.7
			c-6.6,7.9-16.5,13.7-26.8,13.9c-5.5,0.1-11-0.9-16-3.5c-5.9-3-10.3-8-10.9-7.5c-8.7,7.4-22,13.6-35.1,13.9
			c-7.3,0.2-14.8-2.1-20.4-7.1c-4.8-4.3-11-16.3-11.7-15.8c-1.3,1-2.1,1.5-2.7,3c-0.1,0.3,0.2,0.6,0.5,0.6c0.7-0.1,1.3-0.2,1.9-0.4
			c0.9,6.9,3.7,14.8,8.9,19.6c6.1,5.6,14.7,8.6,22.8,8.7c11.9,0.2,29.1-5.2,36.4-14.4c5.2,6.1,9.6,8,14.4,9.6
			c9.6,3,19.4,1.5,28.3-3.1c4.1-2.1,8.1-4.6,12-8.5l4.1-5c6.3-7.7,9.6-17.3,3.6-26.3c-1.3-2-3-3.5-4.7-5.1c-2.5-2.2-3.7-4.4-4.4-7.7
			c-0.6-2.5-1.3-16.1-4.6-24.7"/>
	</g>
	<path class="st3" d="M193.6,116.2c0,0-41.9-11.4-50.6,6.8s3.9,26.5,9.6,29.2s29.2,15.3,54.2-9.4c0,0,24.8,32.2,58.9-6.1
		c0,0,17.4-22.6-4.2-31.9s-45.8,11-45.8,11L193.6,116.2z"/>
	<g>
		<g>
			<path class="st6" d="M153.6,79.4c-6.9-5.6-16.5,10-11.2,15.7c0.3,0.4,1,0.4,1.2-0.1c2.3-6.2,3.7-11.7,9.9-15
				C153.7,79.8,153.8,79.6,153.6,79.4L153.6,79.4z"/>
		</g>
		<g>
			<path class="st6" d="M231.6,76.2c5.4,4,8.9,11.3,10.9,16.4c0.4,1,2.7-0.8,2.6-1.8c-0.6-8.3-11.3-27.3-21.4-17.6
				C223.2,73.7,228,73.6,231.6,76.2z"/>
		</g>
		<path class="st6" d="M215.5,122.1c1.3-0.8,4.4-1.9,4.6-3.9c0.5-5.3-10.7-5.5-13.7-5.7c-4.1-0.3-15.6,2-15.6,5.9
			c-0.1,2.4,2.2,3.5,3.9,4.5c3.2,1.9,10.4,5.2,10.5,5.2l0,0C205.5,128,214,123,215.5,122.1z"/>
		<path class="st6" d="M161.8,87.8c-2.8,0.1-9.3,11-4.7,16.5c1.8,2.2,5.4,0,6.8-3.3c2,2.8,7.9,5.7,8.4,0.3
			C172.8,94.6,162,87.7,161.8,87.8z"/>
		<path class="st6" d="M223.6,99.2c1-0.3,1.7-0.9,2.2-1.8c0.1-0.2,0.3-0.8,0.5-1.4c1.6,3,7.9,5.5,8.2,1.4c0.4-6.9-8.5-15-9.9-15.2
			c-1.1-0.1-4.6,7.9-4.8,12C219.5,97.6,221.2,99.8,223.6,99.2z"/>
		<path class="st7" d="M223.5,89.7c-0.1-0.5-0.5-1-1.3-1.4c-1.9-0.8-4.2,2-2.2,3.4C221.7,92.8,223.8,91.2,223.5,89.7z"/>
		<path class="st7" d="M157.8,97.8c3.5-2.4-2-5.3-3.3-2.6C153.5,97.4,156,99,157.8,97.8z"/>
		<path class="st8" d="M215.7,115.9c-1.3-1.4-10.7-1.2-9.6,1.7C207.3,120.7,217.9,119.2,215.7,115.9z"/>
	</g>
	<path class="st6" d="M265.7,123.2"/>
	<path class="st5" d="M99.1,115c0,0,4.2,3.5,10,0.4c0,0-8.8,8.4-12.9,6.9L99.1,115z"/>
	<path class="st5" d="M261.7,101.1c0,0-1.2-2.1-1.8-8.7c0,0,2.6,7.1,4.9,6.9C264.8,99.3,263.2,100.5,261.7,101.1z"/>
	<path class="st3" d="M259.9,92.6c-1.7-7.1-3-14.3-6.2-20.9c1.6-1.3,4.2-2.6,7.5-2.2C266.8,70.2,276,84.4,259.9,92.6z"/>
</g>
<g id="Calque_3">
</g>
</svg>
